<svg xmlns="http://www.w3.org/2000/svg" preserveAspectRatio="none" width="42" height="36" viewBox="0 0 42 36">
<defs>
  <style>
    .cls-1 {
      fill: #fff;
      fill-rule: evenodd;
    }
  </style>
</defs>
<path class="cls-1" d="M700.342,16921.3a8.249,8.249,0,0,0-5.82-2.7,8.77,8.77,0,0,0,4.834-2.8,7.175,7.175,0,0,0,1.509-4.8,8.877,8.877,0,0,0-1.016-4.3,7.533,7.533,0,0,0-2.956-3,14.2,14.2,0,0,0-4.034-1.3,52.7,52.7,0,0,0-8.267-.4H675v36h9.884a78.448,78.448,0,0,0,8.591-.4,15.518,15.518,0,0,0,4.4-1.4,8.778,8.778,0,0,0,3.372-3.4,10.837,10.837,0,0,0,1.186-5.1A9.306,9.306,0,0,0,700.342,16921.3Zm-16.474-11.3h2.048c2.371,0,3.962.2,4.772,0.8a3.086,3.086,0,0,1,1.217,2.8,2.93,2.93,0,0,1-1.309,2.8,10.516,10.516,0,0,1-4.834.8h-1.894v-7.2h0Zm8.129,20.6a9.37,9.37,0,0,1-4.788.9h-3.341v-7.9h3.48c2.309,0,3.91.3,4.757,0.9a3.708,3.708,0,0,1,1.293,3.2,2.988,2.988,0,0,1-1.416,2.9H692Zm20.569-1.7a4.552,4.552,0,1,0,4.434,4.5h0A4.458,4.458,0,0,0,712.566,16928.9Zm-3.849-26.9h7.7v24h-7.7v-24Z" transform="translate(-675 -16902)"/>
</svg>