<svg xmlns="http://www.w3.org/2000/svg" preserveAspectRatio="none" width="44" height="36" viewBox="0 0 44 36">
<defs>
  <style>
    .cls-1 {
      fill: #fff;
      fill-rule: evenodd;
    }
  </style>
</defs>
<path class="cls-1" d="M387.837,16938c16.6,0,25.686-13.8,25.686-25.9,0-.4,0-0.7-0.027-1.1a19.058,19.058,0,0,0,4.5-4.7,18.6,18.6,0,0,1-5.185,1.4,8.946,8.946,0,0,0,3.969-5,19.471,19.471,0,0,1-5.732,2.2,8.908,8.908,0,0,0-12.773-.4,9.121,9.121,0,0,0-2.612,8.7,25.974,25.974,0,0,1-18.6-9.5,9.112,9.112,0,0,0,2.8,12.1,8.432,8.432,0,0,1-4.1-1.1v0.1a9.123,9.123,0,0,0,7.242,8.9,9.342,9.342,0,0,1-4.076.1,9.168,9.168,0,0,0,8.434,6.4,17.551,17.551,0,0,1-11.211,3.8,15.427,15.427,0,0,1-2.149-.1,25.237,25.237,0,0,0,13.837,4.1" transform="translate(-374 -16902)"/>
</svg>