<svg xmlns="http://www.w3.org/2000/svg" preserveAspectRatio="none" width="40" height="40" viewBox="0 0 40 40">
<defs>
  <style>
    .cls-1 {
      fill: #fff;
      fill-rule: evenodd;
    }
  </style>
</defs>
<path class="cls-1" d="M563.792,16900H528.208a2.213,2.213,0,0,0-2.208,2.2v35.6a2.213,2.213,0,0,0,2.208,2.2h19.157v-15.5h-5.212v-6h5.212v-4.5c0-5.1,3.156-8,7.765-8a32.822,32.822,0,0,1,4.658.3v5.4h-3.2c-2.506,0-2.992,1.2-2.992,2.9v3.9h5.978l-0.778,6h-5.2v15.5h10.193a2.213,2.213,0,0,0,2.208-2.2v-35.6A2.213,2.213,0,0,0,563.792,16900Z" transform="translate(-526 -16900)"/>
</svg>