<svg xmlns="http://www.w3.org/2000/svg" preserveAspectRatio="none" width="48" height="46" viewBox="0 0 48 46">
<defs>
  <style>
    .cls-1 {
      fill: #fff;
      fill-rule: evenodd;
    }
  </style>
</defs>
<path class="cls-1" d="M870,16916.6c0-10.8-10.767-19.6-24-19.6s-24,8.8-24,19.6c0,9.7,8.538,17.8,20.073,19.3,0.781,0.2,1.845.5,2.114,1.2a5.08,5.08,0,0,1,.078,2.2s-0.282,1.7-.343,2.1c-0.1.6-.482,2.3,2.079,1.3,2.562-1.1,13.822-8.1,18.858-14.1h0C868.332,16924.9,870,16920.9,870,16916.6Zm-32.661,5.8c0,0.2-.018.7-0.276,0.7h-6.726a0.661,0.661,0,0,1-.323-0.3h-0.006s0.048-.1.046-0.1a0.426,0.426,0,0,1-.077-0.3h0v-10.6a0.288,0.288,0,0,1,.361-0.3h1.684c0.258,0,.255.1,0.255,0.3v8.5h4.786c0.258,0,.276.1,0.276,0.4v1.7Zm4.6,0.2a0.471,0.471,0,0,1-.468.5h-1.825a0.47,0.47,0,0,1-.468-0.5V16912a0.47,0.47,0,0,1,.468-0.5h1.825a0.471,0.471,0,0,1,.468.5v10.6Zm11.042-.2c0,0.2-.014.7-0.273,0.7h-1.683c-0.042,0-.082-0.2-0.12-0.2H850.9c-0.011,0-.021-0.1-0.032-0.1h-0.106c-0.045-.1-0.2-0.1-0.231-0.2l-4.91-6.5v6.3c0,0.2.014,0.7-.244,0.7h-1.684a0.711,0.711,0,0,1-.373-0.7v-10.6a0.3,0.3,0,0,1,.373-0.3h1.684s0.01-.1.016-0.1h0.221s0.01,0.1.014,0.1h0.1a0.1,0.1,0,0,0,.1.1l4.855,6.5v-6.3a0.276,0.276,0,0,1,.344-0.3h1.683c0.259,0,.273.1,0.273,0.3v10.6Zm9.663-8.9c0,0.3-.38.3-0.638,0.3h-4.424v1.9h4.424a0.721,0.721,0,0,1,.638.6v1.7a0.668,0.668,0,0,1-.638.4h-4.424v1.9h4.424a0.555,0.555,0,0,1,.638.4v1.7a0.98,0.98,0,0,1-.638.7h-6.727a0.651,0.651,0,0,1-.322-0.3H854.95s0-.1,0-0.1a0.484,0.484,0,0,1-.126-0.3h0v-10.6a0.488,0.488,0,0,1,.125-0.3h0s0,0.1,0,.1a0.374,0.374,0,0,1,.323-0.1h6.727a0.555,0.555,0,0,1,.638.4v1.6Z" transform="translate(-822 -16897)"/>
</svg>